<svg xmlns="http://www.w3.org/2000/svg" viewBox="0 0 673.05 211.01"><defs><style>.bb384363-9c09-4712-aacc-793691518b54{fill:#fff;}</style></defs><title>croner-logo--white</title><g id="fc7ff377-1dac-4aa5-be54-b8fd3894021e" data-name="Camada 2"><g id="ee707c7c-9c7d-491e-af40-4e34f6b892a9" data-name="Camada 13"><polygon class="bb384363-9c09-4712-aacc-793691518b54" points="652.65 44.76 506.27 44.76 538.29 76.78 620.63 76.78 620.63 89.49 551 89.49 583.02 121.51 583.02 121.51 595.75 134.24 595.75 134.24 627.77 166.26 673.05 166.26 654.17 147.37 654.17 147.08 641.33 134.24 641.04 134.24 628.31 121.51 652.65 121.51 652.65 44.76"/><polygon class="bb384363-9c09-4712-aacc-793691518b54" points="577.76 134.24 469.25 134.24 469.25 76.78 520.29 76.78 488.27 44.76 437.23 44.76 437.23 166.26 609.77 166.26 577.76 134.24"/><polygon class="bb384363-9c09-4712-aacc-793691518b54" points="483.91 122.47 565.03 122.47 533.01 90.45 483.91 90.45 483.91 122.47"/><polygon class="bb384363-9c09-4712-aacc-793691518b54" points="424.51 44.75 392.49 44.75 392.49 136.72 345.66 44.75 292.56 44.75 292.56 166.26 324.58 166.26 324.58 73.92 371.6 166.26 424.51 166.26 424.51 44.75"/><path class="bb384363-9c09-4712-aacc-793691518b54" d="M159.11,44.75V158.59L122,121.52h24.34V44.76H0l32,32h82.34V89.5H44.74l76.76,76.76H279.83V44.75Zm88.7,89.48H191.13V76.78h56.68Z"/><polygon class="bb384363-9c09-4712-aacc-793691518b54" points="0.02 32.03 32.03 32.03 32.03 32.02 474.58 32.02 442.56 0 0 0 0 32.02 0.02 32.02 0.02 32.03"/><polygon class="bb384363-9c09-4712-aacc-793691518b54" points="653.57 211.01 0.02 211.01 0.02 62.77 32.03 94.79 32.03 178.99 621.55 178.99 653.57 211.01"/></g></g></svg>